<mxfile host="app.diagrams.net" agent="Mozilla/5.0 (Windows NT 10.0; Win64; x64) AppleWebKit/537.36 (KHTML, like Gecko) Chrome/130.0.0.0 Safari/537.36 Edg/130.0.0.0" version="24.8.3">
  <diagram name="Class Diagram" id="P1AetLGwE0EaMBlv26rs">
    <mxGraphModel dx="2392" dy="1151" grid="1" gridSize="10" guides="1" tooltips="1" connect="1" arrows="1" fold="1" page="1" pageScale="1" pageWidth="850" pageHeight="1100" math="0" shadow="0">
      <root>
        <mxCell id="0" />
        <mxCell id="1" parent="0" />
        <mxCell id="tgiKolL8vVsNQKiTnMbF-88" value="" style="rounded=0;whiteSpace=wrap;html=1;" vertex="1" parent="1">
          <mxGeometry x="340" y="30" width="1880" height="1130" as="geometry" />
        </mxCell>
        <mxCell id="tgiKolL8vVsNQKiTnMbF-1" value="Ellipse : Shape" style="swimlane;fontStyle=1;align=center;verticalAlign=top;childLayout=stackLayout;horizontal=1;startSize=26;horizontalStack=0;resizeParent=1;resizeParentMax=0;resizeLast=0;collapsible=1;marginBottom=0;whiteSpace=wrap;html=1;" vertex="1" parent="1">
          <mxGeometry x="1560" y="310" width="500" height="180" as="geometry" />
        </mxCell>
        <mxCell id="tgiKolL8vVsNQKiTnMbF-2" value="&lt;div&gt;# rootNode:&amp;nbsp;&lt;span style=&quot;background-color: initial;&quot;&gt;xml_node&amp;lt;&amp;gt;*&lt;/span&gt;&lt;/div&gt;&lt;div&gt;&lt;span style=&quot;background-color: initial;&quot;&gt;# attributes:&amp;nbsp;&lt;/span&gt;&lt;span style=&quot;background-color: initial;&quot;&gt;SVGAttributes&lt;/span&gt;&lt;/div&gt;&lt;div&gt;&lt;span style=&quot;background-color: initial;&quot;&gt;# center:&amp;nbsp;&lt;/span&gt;&lt;span style=&quot;background-color: initial;&quot;&gt;MyPoint::Point&lt;/span&gt;&lt;/div&gt;&lt;div&gt;&lt;span style=&quot;background-color: initial;&quot;&gt;# rx:&amp;nbsp;&lt;/span&gt;&lt;span style=&quot;background-color: initial;&quot;&gt;INT&lt;/span&gt;&lt;/div&gt;&lt;div&gt;&lt;span style=&quot;background-color: initial;&quot;&gt;# ry:&amp;nbsp;&lt;/span&gt;&lt;span style=&quot;background-color: initial;&quot;&gt;INT&lt;/span&gt;&lt;/div&gt;&lt;div&gt;&lt;span style=&quot;background-color: initial;&quot;&gt;# graphics:&amp;nbsp;&lt;/span&gt;&lt;span style=&quot;background-color: initial;&quot;&gt;Graphics&amp;amp;&lt;/span&gt;&lt;/div&gt;" style="text;strokeColor=none;fillColor=none;align=left;verticalAlign=top;spacingLeft=4;spacingRight=4;overflow=hidden;rotatable=0;points=[[0,0.5],[1,0.5]];portConstraint=eastwest;whiteSpace=wrap;html=1;" vertex="1" parent="tgiKolL8vVsNQKiTnMbF-1">
          <mxGeometry y="26" width="500" height="94" as="geometry" />
        </mxCell>
        <mxCell id="tgiKolL8vVsNQKiTnMbF-3" value="" style="line;strokeWidth=1;fillColor=none;align=left;verticalAlign=middle;spacingTop=-1;spacingLeft=3;spacingRight=3;rotatable=0;labelPosition=right;points=[];portConstraint=eastwest;strokeColor=inherit;" vertex="1" parent="tgiKolL8vVsNQKiTnMbF-1">
          <mxGeometry y="120" width="500" height="8" as="geometry" />
        </mxCell>
        <mxCell id="tgiKolL8vVsNQKiTnMbF-4" value="&lt;div&gt;&lt;span style=&quot;background-color: initial;&quot;&gt;&lt;div&gt;+ Ellipse(xml_node&amp;lt;&amp;gt;* rootNode, Gdiplus::Graphics&amp;amp; graphics): parameterized constructor&lt;/div&gt;&lt;div&gt;+ drawEllipse(Graphics&amp;amp; graphics):&amp;nbsp;&lt;span style=&quot;background-color: initial;&quot;&gt;void&lt;/span&gt;&lt;/div&gt;&lt;/span&gt;&lt;span style=&quot;background-color: initial;&quot;&gt;&lt;div&gt;+ draw():&amp;nbsp;&lt;span style=&quot;background-color: initial;&quot;&gt;void&lt;/span&gt;&lt;span style=&quot;background-color: initial;&quot;&gt;&amp;nbsp;&lt;/span&gt;&lt;/div&gt;&lt;/span&gt;&lt;/div&gt;" style="text;strokeColor=none;fillColor=none;align=left;verticalAlign=top;spacingLeft=4;spacingRight=4;overflow=hidden;rotatable=0;points=[[0,0.5],[1,0.5]];portConstraint=eastwest;whiteSpace=wrap;html=1;" vertex="1" parent="tgiKolL8vVsNQKiTnMbF-1">
          <mxGeometry y="128" width="500" height="52" as="geometry" />
        </mxCell>
        <mxCell id="tgiKolL8vVsNQKiTnMbF-5" value="Point : Shape" style="swimlane;fontStyle=1;align=center;verticalAlign=top;childLayout=stackLayout;horizontal=1;startSize=26;horizontalStack=0;resizeParent=1;resizeParentMax=0;resizeLast=0;collapsible=1;marginBottom=0;whiteSpace=wrap;html=1;" vertex="1" parent="1">
          <mxGeometry x="1050" y="60" width="260" height="220" as="geometry" />
        </mxCell>
        <mxCell id="tgiKolL8vVsNQKiTnMbF-6" value="&lt;div&gt;- x: int&lt;/div&gt;&lt;div&gt;- y: int&lt;/div&gt;" style="text;strokeColor=none;fillColor=none;align=left;verticalAlign=top;spacingLeft=4;spacingRight=4;overflow=hidden;rotatable=0;points=[[0,0.5],[1,0.5]];portConstraint=eastwest;whiteSpace=wrap;html=1;" vertex="1" parent="tgiKolL8vVsNQKiTnMbF-5">
          <mxGeometry y="26" width="260" height="34" as="geometry" />
        </mxCell>
        <mxCell id="tgiKolL8vVsNQKiTnMbF-7" value="" style="line;strokeWidth=1;fillColor=none;align=left;verticalAlign=middle;spacingTop=-1;spacingLeft=3;spacingRight=3;rotatable=0;labelPosition=right;points=[];portConstraint=eastwest;strokeColor=inherit;" vertex="1" parent="tgiKolL8vVsNQKiTnMbF-5">
          <mxGeometry y="60" width="260" height="8" as="geometry" />
        </mxCell>
        <mxCell id="tgiKolL8vVsNQKiTnMbF-8" value="&lt;span style=&quot;background-color: initial;&quot;&gt;&lt;div&gt;+ Point(): default constructor&lt;/div&gt;&lt;div&gt;+ Point(x: int, y: int): parameterized constructor&lt;/div&gt;&lt;div&gt;+ Point(other: const Point&amp;amp;): copy constructor&lt;/div&gt;&lt;div&gt;+ ~Point(): destructor&lt;/div&gt;&lt;div&gt;&lt;br&gt;&lt;/div&gt;&lt;div&gt;+ setX(x: int): void&lt;/div&gt;&lt;div&gt;+ setY(y: int): void&lt;/div&gt;&lt;div&gt;+ getX(): int&lt;/div&gt;&lt;div&gt;+ getY(): int&lt;/div&gt;&lt;div&gt;+ print(): void&lt;/div&gt;&lt;/span&gt;" style="text;strokeColor=none;fillColor=none;align=left;verticalAlign=top;spacingLeft=4;spacingRight=4;overflow=hidden;rotatable=0;points=[[0,0.5],[1,0.5]];portConstraint=eastwest;whiteSpace=wrap;html=1;" vertex="1" parent="tgiKolL8vVsNQKiTnMbF-5">
          <mxGeometry y="68" width="260" height="152" as="geometry" />
        </mxCell>
        <mxCell id="tgiKolL8vVsNQKiTnMbF-9" value="Polygon : Shape" style="swimlane;fontStyle=1;align=center;verticalAlign=top;childLayout=stackLayout;horizontal=1;startSize=26;horizontalStack=0;resizeParent=1;resizeParentMax=0;resizeLast=0;collapsible=1;marginBottom=0;whiteSpace=wrap;html=1;" vertex="1" parent="1">
          <mxGeometry x="1480" y="50" width="210" height="150" as="geometry" />
        </mxCell>
        <mxCell id="tgiKolL8vVsNQKiTnMbF-10" value="&lt;span class=&quot;hljs-deletion&quot;&gt;- rootNode: xml_node&amp;lt;&amp;gt;*&lt;/span&gt;&lt;br/&gt;&lt;span class=&quot;hljs-deletion&quot;&gt;- attributes: SVGAttributes&lt;/span&gt;&lt;br/&gt;&lt;span class=&quot;hljs-deletion&quot;&gt;- points: vector&amp;lt;MyPoint::Point&amp;gt;&lt;/span&gt;&lt;br/&gt;&lt;span class=&quot;hljs-deletion&quot;&gt;- graphics: Graphics&amp;amp;&lt;/span&gt;" style="text;strokeColor=none;fillColor=none;align=left;verticalAlign=top;spacingLeft=4;spacingRight=4;overflow=hidden;rotatable=0;points=[[0,0.5],[1,0.5]];portConstraint=eastwest;whiteSpace=wrap;html=1;" vertex="1" parent="tgiKolL8vVsNQKiTnMbF-9">
          <mxGeometry y="26" width="210" height="64" as="geometry" />
        </mxCell>
        <mxCell id="tgiKolL8vVsNQKiTnMbF-11" value="" style="line;strokeWidth=1;fillColor=none;align=left;verticalAlign=middle;spacingTop=-1;spacingLeft=3;spacingRight=3;rotatable=0;labelPosition=right;points=[];portConstraint=eastwest;strokeColor=inherit;" vertex="1" parent="tgiKolL8vVsNQKiTnMbF-9">
          <mxGeometry y="90" width="210" height="8" as="geometry" />
        </mxCell>
        <mxCell id="tgiKolL8vVsNQKiTnMbF-12" value="&lt;span class=&quot;hljs-addition&quot;&gt;+ Polygon(xml_node&amp;lt;&amp;gt;*, Graphics&amp;amp;)&lt;/span&gt;&lt;br/&gt;&lt;span class=&quot;hljs-addition&quot;&gt;+ printInfomation(): void&lt;/span&gt;&lt;br/&gt;&lt;span class=&quot;hljs-addition&quot;&gt;+ draw(): void&lt;/span&gt;&lt;span style=&quot;background-color: initial;&quot;&gt;&lt;/span&gt;" style="text;strokeColor=none;fillColor=none;align=left;verticalAlign=top;spacingLeft=4;spacingRight=4;overflow=hidden;rotatable=0;points=[[0,0.5],[1,0.5]];portConstraint=eastwest;whiteSpace=wrap;html=1;" vertex="1" parent="tgiKolL8vVsNQKiTnMbF-9">
          <mxGeometry y="98" width="210" height="52" as="geometry" />
        </mxCell>
        <mxCell id="tgiKolL8vVsNQKiTnMbF-17" value="SVGAttributes" style="swimlane;fontStyle=1;align=center;verticalAlign=top;childLayout=stackLayout;horizontal=1;startSize=26;horizontalStack=0;resizeParent=1;resizeParentMax=0;resizeLast=0;collapsible=1;marginBottom=0;whiteSpace=wrap;html=1;" vertex="1" parent="1">
          <mxGeometry x="1035" y="520" width="290" height="630" as="geometry" />
        </mxCell>
        <mxCell id="tgiKolL8vVsNQKiTnMbF-18" value="- fill: &lt;span class=&quot;hljs-built_in&quot;&gt;std&lt;/span&gt;::&lt;span class=&quot;hljs-built_in&quot;&gt;string&lt;/span&gt;&lt;br/&gt;- stroke: &lt;span class=&quot;hljs-built_in&quot;&gt;std&lt;/span&gt;::&lt;span class=&quot;hljs-built_in&quot;&gt;string&lt;/span&gt;&lt;br/&gt;- strokeWidth: &lt;span class=&quot;hljs-type&quot;&gt;float&lt;/span&gt;&lt;br/&gt;- opacity: &lt;span class=&quot;hljs-type&quot;&gt;float&lt;/span&gt;&lt;br/&gt;- fillOpacity: &lt;span class=&quot;hljs-type&quot;&gt;float&lt;/span&gt;&lt;br/&gt;- strokeOpacity: &lt;span class=&quot;hljs-type&quot;&gt;float&lt;/span&gt;&lt;br/&gt;- strokeLinecap: &lt;span class=&quot;hljs-built_in&quot;&gt;std&lt;/span&gt;::&lt;span class=&quot;hljs-built_in&quot;&gt;string&lt;/span&gt;&lt;br/&gt;- strokeLinejoin: &lt;span class=&quot;hljs-built_in&quot;&gt;std&lt;/span&gt;::&lt;span class=&quot;hljs-built_in&quot;&gt;string&lt;/span&gt;&lt;br/&gt;- strokeDasharray: &lt;span class=&quot;hljs-built_in&quot;&gt;std&lt;/span&gt;::&lt;span class=&quot;hljs-built_in&quot;&gt;string&lt;/span&gt;&lt;br/&gt;- transform: &lt;span class=&quot;hljs-built_in&quot;&gt;std&lt;/span&gt;::&lt;span class=&quot;hljs-built_in&quot;&gt;string&lt;/span&gt;&lt;br/&gt;- fillColor: Gdiplus::Color&lt;br/&gt;- strokeColor: Gdiplus::Color" style="text;strokeColor=none;fillColor=none;align=left;verticalAlign=top;spacingLeft=4;spacingRight=4;overflow=hidden;rotatable=0;points=[[0,0.5],[1,0.5]];portConstraint=eastwest;whiteSpace=wrap;html=1;" vertex="1" parent="tgiKolL8vVsNQKiTnMbF-17">
          <mxGeometry y="26" width="290" height="184" as="geometry" />
        </mxCell>
        <mxCell id="tgiKolL8vVsNQKiTnMbF-19" value="" style="line;strokeWidth=1;fillColor=none;align=left;verticalAlign=middle;spacingTop=-1;spacingLeft=3;spacingRight=3;rotatable=0;labelPosition=right;points=[];portConstraint=eastwest;strokeColor=inherit;" vertex="1" parent="tgiKolL8vVsNQKiTnMbF-17">
          <mxGeometry y="210" width="290" height="8" as="geometry" />
        </mxCell>
        <mxCell id="tgiKolL8vVsNQKiTnMbF-20" value="+ SVGAttributes(xml_node&amp;lt;&amp;gt;* polygonNode)&lt;div&gt;&lt;br&gt;+ setFill(&lt;span class=&quot;hljs-type&quot;&gt;const&lt;/span&gt; &lt;span class=&quot;hljs-built_in&quot;&gt;std&lt;/span&gt;::&lt;span class=&quot;hljs-built_in&quot;&gt;string&lt;/span&gt;&amp;amp; color): &lt;span class=&quot;hljs-type&quot;&gt;void&lt;/span&gt;&lt;br&gt;+ getFill() &lt;span class=&quot;hljs-type&quot;&gt;const&lt;/span&gt;: &lt;span class=&quot;hljs-built_in&quot;&gt;std&lt;/span&gt;::&lt;span class=&quot;hljs-built_in&quot;&gt;string&lt;/span&gt;&lt;br&gt;+ setStroke(&lt;span class=&quot;hljs-type&quot;&gt;const&lt;/span&gt; &lt;span class=&quot;hljs-built_in&quot;&gt;std&lt;/span&gt;::&lt;span class=&quot;hljs-built_in&quot;&gt;string&lt;/span&gt;&amp;amp; color): &lt;span class=&quot;hljs-type&quot;&gt;void&lt;/span&gt;&lt;br&gt;+ getStroke() &lt;span class=&quot;hljs-type&quot;&gt;const&lt;/span&gt;: &lt;span class=&quot;hljs-built_in&quot;&gt;std&lt;/span&gt;::&lt;span class=&quot;hljs-built_in&quot;&gt;string&lt;/span&gt;&lt;br&gt;+ setStrokeWidth(&lt;span class=&quot;hljs-type&quot;&gt;float&lt;/span&gt; width): &lt;span class=&quot;hljs-type&quot;&gt;void&lt;/span&gt;&lt;br&gt;+ getStrokeWidth() &lt;span class=&quot;hljs-type&quot;&gt;const&lt;/span&gt;: &lt;span class=&quot;hljs-type&quot;&gt;float&lt;/span&gt;&lt;br&gt;+ setOpacity(&lt;span class=&quot;hljs-type&quot;&gt;float&lt;/span&gt; value): &lt;span class=&quot;hljs-type&quot;&gt;void&lt;/span&gt;&lt;br&gt;+ getOpacity() &lt;span class=&quot;hljs-type&quot;&gt;const&lt;/span&gt;: &lt;span class=&quot;hljs-type&quot;&gt;float&lt;/span&gt;&lt;br&gt;+ setFillOpacity(&lt;span class=&quot;hljs-type&quot;&gt;float&lt;/span&gt; value): &lt;span class=&quot;hljs-type&quot;&gt;void&lt;/span&gt;&lt;br&gt;+ getFillOpacity() &lt;span class=&quot;hljs-type&quot;&gt;const&lt;/span&gt;: &lt;span class=&quot;hljs-type&quot;&gt;float&lt;/span&gt;&lt;br&gt;+ setStrokeOpacity(&lt;span class=&quot;hljs-type&quot;&gt;float&lt;/span&gt; value): &lt;span class=&quot;hljs-type&quot;&gt;void&lt;/span&gt;&lt;br&gt;+ getStrokeOpacity() &lt;span class=&quot;hljs-type&quot;&gt;const&lt;/span&gt;: &lt;span class=&quot;hljs-type&quot;&gt;float&lt;/span&gt;&lt;br&gt;+ setStrokeLinecap(&lt;span class=&quot;hljs-type&quot;&gt;const&lt;/span&gt; &lt;span class=&quot;hljs-built_in&quot;&gt;std&lt;/span&gt;::&lt;span class=&quot;hljs-built_in&quot;&gt;string&lt;/span&gt;&amp;amp; cap): &lt;span class=&quot;hljs-type&quot;&gt;void&lt;/span&gt;&lt;br&gt;+ getStrokeLinecap() &lt;span class=&quot;hljs-type&quot;&gt;const&lt;/span&gt;: &lt;span class=&quot;hljs-built_in&quot;&gt;std&lt;/span&gt;::&lt;span class=&quot;hljs-built_in&quot;&gt;string&lt;/span&gt;&lt;br&gt;+ setStrokeLinejoin(&lt;span class=&quot;hljs-type&quot;&gt;const&lt;/span&gt; &lt;span class=&quot;hljs-built_in&quot;&gt;std&lt;/span&gt;::&lt;span class=&quot;hljs-built_in&quot;&gt;string&lt;/span&gt;&amp;amp; join): &lt;span class=&quot;hljs-type&quot;&gt;void&lt;/span&gt;&lt;br&gt;+ getStrokeLinejoin() &lt;span class=&quot;hljs-type&quot;&gt;const&lt;/span&gt;: &lt;span class=&quot;hljs-built_in&quot;&gt;std&lt;/span&gt;::&lt;span class=&quot;hljs-built_in&quot;&gt;string&lt;/span&gt;&lt;br&gt;+ setStrokeDasharray(&lt;span class=&quot;hljs-type&quot;&gt;const&lt;/span&gt; &lt;span class=&quot;hljs-built_in&quot;&gt;std&lt;/span&gt;::&lt;span class=&quot;hljs-built_in&quot;&gt;string&lt;/span&gt;&amp;amp; dash): &lt;span class=&quot;hljs-type&quot;&gt;void&lt;/span&gt;&lt;br&gt;+ getStrokeDasharray() &lt;span class=&quot;hljs-type&quot;&gt;const&lt;/span&gt;: &lt;span class=&quot;hljs-built_in&quot;&gt;std&lt;/span&gt;::&lt;span class=&quot;hljs-built_in&quot;&gt;string&lt;/span&gt;&lt;br&gt;+ setTransform(&lt;span class=&quot;hljs-type&quot;&gt;const&lt;/span&gt; &lt;span class=&quot;hljs-built_in&quot;&gt;std&lt;/span&gt;::&lt;span class=&quot;hljs-built_in&quot;&gt;string&lt;/span&gt;&amp;amp; trans): &lt;span class=&quot;hljs-type&quot;&gt;void&lt;/span&gt;&lt;br&gt;+ getTransform() &lt;span class=&quot;hljs-type&quot;&gt;const&lt;/span&gt;: &lt;span class=&quot;hljs-built_in&quot;&gt;std&lt;/span&gt;::&lt;span class=&quot;hljs-built_in&quot;&gt;string&lt;/span&gt;&lt;br&gt;+ setFillColor(&lt;span class=&quot;hljs-built_in&quot;&gt;std&lt;/span&gt;::&lt;span class=&quot;hljs-built_in&quot;&gt;string&lt;/span&gt; str): &lt;span class=&quot;hljs-type&quot;&gt;void&lt;/span&gt;&lt;br&gt;+ getFillColor() &lt;span class=&quot;hljs-type&quot;&gt;const&lt;/span&gt;: Gdiplus::Color&lt;br&gt;+ setStrokeColor(&lt;span class=&quot;hljs-built_in&quot;&gt;std&lt;/span&gt;::&lt;span class=&quot;hljs-built_in&quot;&gt;string&lt;/span&gt; str): &lt;span class=&quot;hljs-type&quot;&gt;void&lt;/span&gt;&lt;br&gt;+ getStrokeColor() &lt;span class=&quot;hljs-type&quot;&gt;const&lt;/span&gt;: Gdiplus::Color&lt;span style=&quot;background-color: initial;&quot;&gt;&lt;/span&gt;&lt;/div&gt;&lt;div&gt;&lt;br&gt;&lt;/div&gt;&lt;div&gt;+ printAttributes()&amp;nbsp;&lt;span class=&quot;hljs-type&quot;&gt;const&lt;/span&gt;:&amp;nbsp;&lt;span class=&quot;hljs-type&quot;&gt;void&lt;/span&gt;&lt;br&gt;&lt;/div&gt;" style="text;strokeColor=none;fillColor=none;align=left;verticalAlign=top;spacingLeft=4;spacingRight=4;overflow=hidden;rotatable=0;points=[[0,0.5],[1,0.5]];portConstraint=eastwest;whiteSpace=wrap;html=1;" vertex="1" parent="tgiKolL8vVsNQKiTnMbF-17">
          <mxGeometry y="218" width="290" height="412" as="geometry" />
        </mxCell>
        <mxCell id="tgiKolL8vVsNQKiTnMbF-22" value="SVGParser" style="swimlane;fontStyle=1;align=center;verticalAlign=top;childLayout=stackLayout;horizontal=1;startSize=26;horizontalStack=0;resizeParent=1;resizeParentMax=0;resizeLast=0;collapsible=1;marginBottom=0;whiteSpace=wrap;html=1;" vertex="1" parent="1">
          <mxGeometry x="720" y="940" width="300" height="210" as="geometry" />
        </mxCell>
        <mxCell id="tgiKolL8vVsNQKiTnMbF-23" value="&lt;span class=&quot;hljs-deletion&quot;&gt;- filename: string&lt;/span&gt;&lt;br/&gt;&lt;span class=&quot;hljs-deletion&quot;&gt;- doc: xml_document&amp;lt;&amp;gt;&lt;/span&gt;&lt;br/&gt;&lt;span class=&quot;hljs-deletion&quot;&gt;- root_node: xml_node&amp;lt;&amp;gt;*&lt;/span&gt;&lt;br/&gt;&lt;span class=&quot;hljs-deletion&quot;&gt;- buffer: char*&lt;/span&gt;" style="text;strokeColor=none;fillColor=none;align=left;verticalAlign=top;spacingLeft=4;spacingRight=4;overflow=hidden;rotatable=0;points=[[0,0.5],[1,0.5]];portConstraint=eastwest;whiteSpace=wrap;html=1;" vertex="1" parent="tgiKolL8vVsNQKiTnMbF-22">
          <mxGeometry y="26" width="300" height="64" as="geometry" />
        </mxCell>
        <mxCell id="tgiKolL8vVsNQKiTnMbF-24" value="" style="line;strokeWidth=1;fillColor=none;align=left;verticalAlign=middle;spacingTop=-1;spacingLeft=3;spacingRight=3;rotatable=0;labelPosition=right;points=[];portConstraint=eastwest;strokeColor=inherit;" vertex="1" parent="tgiKolL8vVsNQKiTnMbF-22">
          <mxGeometry y="90" width="300" height="8" as="geometry" />
        </mxCell>
        <mxCell id="tgiKolL8vVsNQKiTnMbF-25" value="&lt;span class=&quot;hljs-addition&quot;&gt;+ SVGParser()&lt;/span&gt;&lt;br&gt;&lt;span class=&quot;hljs-addition&quot;&gt;+ ~SVGParser()&lt;/span&gt;&lt;div&gt;&lt;br&gt;&lt;span class=&quot;hljs-addition&quot;&gt;+ loadFile(const string&amp;amp; filename): void&lt;/span&gt;&lt;br&gt;&lt;span class=&quot;hljs-addition&quot;&gt;+ getRootNodeName(string nodeName): xml_node&amp;lt;&amp;gt;*&lt;/span&gt;&lt;/div&gt;&lt;div&gt;&lt;br&gt;&lt;span class=&quot;hljs-addition&quot;&gt;+ print(): void&lt;/span&gt;&lt;span style=&quot;background-color: initial;&quot;&gt;&lt;/span&gt;&lt;/div&gt;" style="text;strokeColor=none;fillColor=none;align=left;verticalAlign=top;spacingLeft=4;spacingRight=4;overflow=hidden;rotatable=0;points=[[0,0.5],[1,0.5]];portConstraint=eastwest;whiteSpace=wrap;html=1;" vertex="1" parent="tgiKolL8vVsNQKiTnMbF-22">
          <mxGeometry y="98" width="300" height="112" as="geometry" />
        </mxCell>
        <mxCell id="tgiKolL8vVsNQKiTnMbF-27" value="                  Text : Shape" style="swimlane;fontStyle=1;align=center;verticalAlign=top;childLayout=stackLayout;horizontal=1;startSize=26;horizontalStack=0;resizeParent=1;resizeParentMax=0;resizeLast=0;collapsible=1;marginBottom=0;whiteSpace=wrap;html=1;" vertex="1" parent="1">
          <mxGeometry x="1560" y="560" width="340" height="190" as="geometry" />
        </mxCell>
        <mxCell id="tgiKolL8vVsNQKiTnMbF-28" value="&lt;span class=&quot;hljs-deletion&quot;&gt;- rootNode: xml_node&amp;lt;&amp;gt;*&lt;/span&gt;&lt;br/&gt;&lt;span class=&quot;hljs-deletion&quot;&gt;- attributes: SVGAttributes&lt;/span&gt;&lt;br/&gt;&lt;span class=&quot;hljs-deletion&quot;&gt;- point: MyPoint::Point&lt;/span&gt;&lt;br/&gt;&lt;span class=&quot;hljs-deletion&quot;&gt;- font: int&lt;/span&gt;&lt;br/&gt;&lt;span class=&quot;hljs-deletion&quot;&gt;- graphics: Graphics&amp;amp;&lt;/span&gt;" style="text;strokeColor=none;fillColor=none;align=left;verticalAlign=top;spacingLeft=4;spacingRight=4;overflow=hidden;rotatable=0;points=[[0,0.5],[1,0.5]];portConstraint=eastwest;whiteSpace=wrap;html=1;" vertex="1" parent="tgiKolL8vVsNQKiTnMbF-27">
          <mxGeometry y="26" width="340" height="84" as="geometry" />
        </mxCell>
        <mxCell id="tgiKolL8vVsNQKiTnMbF-29" value="" style="line;strokeWidth=1;fillColor=none;align=left;verticalAlign=middle;spacingTop=-1;spacingLeft=3;spacingRight=3;rotatable=0;labelPosition=right;points=[];portConstraint=eastwest;strokeColor=inherit;" vertex="1" parent="tgiKolL8vVsNQKiTnMbF-27">
          <mxGeometry y="110" width="340" height="8" as="geometry" />
        </mxCell>
        <mxCell id="tgiKolL8vVsNQKiTnMbF-30" value="&lt;span class=&quot;hljs-addition&quot;&gt;+ Text(xml_node&amp;lt;&amp;gt;* rootNode, Gdiplus::Graphics&amp;amp; graphics)&lt;/span&gt;&lt;br&gt;&lt;span class=&quot;hljs-addition&quot;&gt;&lt;br&gt;&lt;/span&gt;&lt;div&gt;&lt;span class=&quot;hljs-addition&quot;&gt;+ printInfomation(): void&lt;/span&gt;&lt;br&gt;&lt;span class=&quot;hljs-addition&quot;&gt;+ draw(): void&lt;/span&gt;&lt;span style=&quot;background-color: initial;&quot;&gt;&lt;/span&gt;&lt;/div&gt;" style="text;strokeColor=none;fillColor=none;align=left;verticalAlign=top;spacingLeft=4;spacingRight=4;overflow=hidden;rotatable=0;points=[[0,0.5],[1,0.5]];portConstraint=eastwest;whiteSpace=wrap;html=1;" vertex="1" parent="tgiKolL8vVsNQKiTnMbF-27">
          <mxGeometry y="118" width="340" height="72" as="geometry" />
        </mxCell>
        <mxCell id="tgiKolL8vVsNQKiTnMbF-32" value="          Circle : Ellipse&lt;div&gt;&lt;br/&gt;&lt;/div&gt;" style="swimlane;fontStyle=1;align=center;verticalAlign=top;childLayout=stackLayout;horizontal=1;startSize=26;horizontalStack=0;resizeParent=1;resizeParentMax=0;resizeLast=0;collapsible=1;marginBottom=0;whiteSpace=wrap;html=1;" vertex="1" parent="1">
          <mxGeometry x="1720" y="110" width="490" height="130" as="geometry" />
        </mxCell>
        <mxCell id="tgiKolL8vVsNQKiTnMbF-33" value="- r: INT&amp;nbsp;" style="text;strokeColor=none;fillColor=none;align=left;verticalAlign=top;spacingLeft=4;spacingRight=4;overflow=hidden;rotatable=0;points=[[0,0.5],[1,0.5]];portConstraint=eastwest;whiteSpace=wrap;html=1;" vertex="1" parent="tgiKolL8vVsNQKiTnMbF-32">
          <mxGeometry y="26" width="490" height="24" as="geometry" />
        </mxCell>
        <mxCell id="tgiKolL8vVsNQKiTnMbF-34" value="" style="line;strokeWidth=1;fillColor=none;align=left;verticalAlign=middle;spacingTop=-1;spacingLeft=3;spacingRight=3;rotatable=0;labelPosition=right;points=[];portConstraint=eastwest;strokeColor=inherit;" vertex="1" parent="tgiKolL8vVsNQKiTnMbF-32">
          <mxGeometry y="50" width="490" height="8" as="geometry" />
        </mxCell>
        <mxCell id="tgiKolL8vVsNQKiTnMbF-35" value="&lt;span class=&quot;hljs-bullet&quot;&gt;+&lt;/span&gt; Circle(rootNode: xml&lt;span class=&quot;hljs-emphasis&quot;&gt;_node&amp;lt;&amp;gt;, graphics: Gdiplus::Graphics&amp;amp;): parameterized constructor&lt;br&gt;&lt;br&gt;&lt;/span&gt;&lt;div&gt;&lt;span class=&quot;hljs-emphasis&quot;&gt;+ draw(): void&lt;br&gt;+ checksth(): void&lt;/span&gt;&lt;span style=&quot;background-color: initial;&quot;&gt;&lt;/span&gt;&lt;/div&gt;" style="text;strokeColor=none;fillColor=none;align=left;verticalAlign=top;spacingLeft=4;spacingRight=4;overflow=hidden;rotatable=0;points=[[0,0.5],[1,0.5]];portConstraint=eastwest;whiteSpace=wrap;html=1;" vertex="1" parent="tgiKolL8vVsNQKiTnMbF-32">
          <mxGeometry y="58" width="490" height="72" as="geometry" />
        </mxCell>
        <mxCell id="tgiKolL8vVsNQKiTnMbF-44" value="&lt;div&gt;          Polyline : Line&lt;/div&gt;" style="swimlane;fontStyle=1;align=center;verticalAlign=top;childLayout=stackLayout;horizontal=1;startSize=26;horizontalStack=0;resizeParent=1;resizeParentMax=0;resizeLast=0;collapsible=1;marginBottom=0;whiteSpace=wrap;html=1;" vertex="1" parent="1">
          <mxGeometry x="480" y="40" width="360" height="170" as="geometry" />
        </mxCell>
        <mxCell id="tgiKolL8vVsNQKiTnMbF-45" value="&lt;span class=&quot;hljs-deletion&quot;&gt;- rootNode: xml_node&amp;lt;&amp;gt;&lt;/span&gt;&lt;br/&gt;&lt;span class=&quot;hljs-deletion&quot;&gt;- attributes: SVGAttributes&lt;/span&gt;&lt;br/&gt;&lt;span class=&quot;hljs-deletion&quot;&gt;- points: vector&amp;lt;MyPoint::Point&amp;gt;&lt;/span&gt;&lt;br/&gt;&lt;span class=&quot;hljs-deletion&quot;&gt;- graphics: Graphics&amp;amp;&lt;/span&gt;" style="text;strokeColor=none;fillColor=none;align=left;verticalAlign=top;spacingLeft=4;spacingRight=4;overflow=hidden;rotatable=0;points=[[0,0.5],[1,0.5]];portConstraint=eastwest;whiteSpace=wrap;html=1;" vertex="1" parent="tgiKolL8vVsNQKiTnMbF-44">
          <mxGeometry y="26" width="360" height="64" as="geometry" />
        </mxCell>
        <mxCell id="tgiKolL8vVsNQKiTnMbF-46" value="" style="line;strokeWidth=1;fillColor=none;align=left;verticalAlign=middle;spacingTop=-1;spacingLeft=3;spacingRight=3;rotatable=0;labelPosition=right;points=[];portConstraint=eastwest;strokeColor=inherit;" vertex="1" parent="tgiKolL8vVsNQKiTnMbF-44">
          <mxGeometry y="90" width="360" height="8" as="geometry" />
        </mxCell>
        <mxCell id="tgiKolL8vVsNQKiTnMbF-47" value="&lt;span class=&quot;hljs-addition&quot;&gt;+ Polyline(rootNode: xml_node&amp;lt;&amp;gt;, graphics: Gdiplus::Graphics&amp;amp;)&lt;/span&gt;&lt;div&gt;&lt;br&gt;&lt;span class=&quot;hljs-addition&quot;&gt;+ printInfomation(): void&lt;/span&gt;&lt;br&gt;&lt;span class=&quot;hljs-addition&quot;&gt;+ draw(): void&lt;/span&gt;&lt;/div&gt;" style="text;strokeColor=none;fillColor=none;align=left;verticalAlign=top;spacingLeft=4;spacingRight=4;overflow=hidden;rotatable=0;points=[[0,0.5],[1,0.5]];portConstraint=eastwest;whiteSpace=wrap;html=1;" vertex="1" parent="tgiKolL8vVsNQKiTnMbF-44">
          <mxGeometry y="98" width="360" height="72" as="geometry" />
        </mxCell>
        <mxCell id="tgiKolL8vVsNQKiTnMbF-48" value="&lt;div&gt;          Rectangle : Shape&lt;/div&gt;" style="swimlane;fontStyle=1;align=center;verticalAlign=top;childLayout=stackLayout;horizontal=1;startSize=26;horizontalStack=0;resizeParent=1;resizeParentMax=0;resizeLast=0;collapsible=1;marginBottom=0;whiteSpace=wrap;html=1;" vertex="1" parent="1">
          <mxGeometry x="470" y="280" width="370" height="200" as="geometry" />
        </mxCell>
        <mxCell id="tgiKolL8vVsNQKiTnMbF-49" value="&lt;span class=&quot;hljs-deletion&quot;&gt;- rootNode: xml_node&amp;lt;&amp;gt;&lt;/span&gt;&lt;br/&gt;&lt;span class=&quot;hljs-deletion&quot;&gt;- attributes: SVGAttributes&lt;/span&gt;&lt;br/&gt;&lt;span class=&quot;hljs-deletion&quot;&gt;- point: MyPoint::Point&lt;/span&gt;&lt;br/&gt;&lt;span class=&quot;hljs-deletion&quot;&gt;- height: int&lt;/span&gt;&lt;br/&gt;&lt;span class=&quot;hljs-deletion&quot;&gt;- width: int&lt;/span&gt;&lt;br/&gt;&lt;span class=&quot;hljs-deletion&quot;&gt;- graphics: Graphics&amp;amp;&lt;/span&gt;" style="text;strokeColor=none;fillColor=none;align=left;verticalAlign=top;spacingLeft=4;spacingRight=4;overflow=hidden;rotatable=0;points=[[0,0.5],[1,0.5]];portConstraint=eastwest;whiteSpace=wrap;html=1;" vertex="1" parent="tgiKolL8vVsNQKiTnMbF-48">
          <mxGeometry y="26" width="370" height="94" as="geometry" />
        </mxCell>
        <mxCell id="tgiKolL8vVsNQKiTnMbF-50" value="" style="line;strokeWidth=1;fillColor=none;align=left;verticalAlign=middle;spacingTop=-1;spacingLeft=3;spacingRight=3;rotatable=0;labelPosition=right;points=[];portConstraint=eastwest;strokeColor=inherit;" vertex="1" parent="tgiKolL8vVsNQKiTnMbF-48">
          <mxGeometry y="120" width="370" height="8" as="geometry" />
        </mxCell>
        <mxCell id="tgiKolL8vVsNQKiTnMbF-51" value="&lt;span class=&quot;hljs-addition&quot;&gt;+ Rectangle(rootNode: xml_node&amp;lt;&amp;gt;, graphics: Gdiplus::Graphics&amp;amp;)&lt;/span&gt;&lt;div&gt;&lt;br&gt;&lt;span class=&quot;hljs-addition&quot;&gt;+ printInfomation(): void&lt;/span&gt;&lt;br&gt;&lt;span class=&quot;hljs-addition&quot;&gt;+ draw(): void&lt;/span&gt;&lt;/div&gt;" style="text;strokeColor=none;fillColor=none;align=left;verticalAlign=top;spacingLeft=4;spacingRight=4;overflow=hidden;rotatable=0;points=[[0,0.5],[1,0.5]];portConstraint=eastwest;whiteSpace=wrap;html=1;" vertex="1" parent="tgiKolL8vVsNQKiTnMbF-48">
          <mxGeometry y="128" width="370" height="72" as="geometry" />
        </mxCell>
        <mxCell id="tgiKolL8vVsNQKiTnMbF-52" value="Shape" style="swimlane;fontStyle=1;align=center;verticalAlign=top;childLayout=stackLayout;horizontal=1;startSize=26;horizontalStack=0;resizeParent=1;resizeParentMax=0;resizeLast=0;collapsible=1;marginBottom=0;whiteSpace=wrap;html=1;" vertex="1" parent="1">
          <mxGeometry x="1075" y="358" width="210" height="50" as="geometry" />
        </mxCell>
        <mxCell id="tgiKolL8vVsNQKiTnMbF-55" value="+ draw(): void" style="text;strokeColor=none;fillColor=none;align=left;verticalAlign=top;spacingLeft=4;spacingRight=4;overflow=hidden;rotatable=0;points=[[0,0.5],[1,0.5]];portConstraint=eastwest;whiteSpace=wrap;html=1;" vertex="1" parent="tgiKolL8vVsNQKiTnMbF-52">
          <mxGeometry y="26" width="210" height="24" as="geometry" />
        </mxCell>
        <mxCell id="tgiKolL8vVsNQKiTnMbF-56" value="Extends" style="endArrow=block;endSize=16;endFill=0;html=1;rounded=0;exitX=0.497;exitY=0.988;exitDx=0;exitDy=0;exitPerimeter=0;entryX=0.5;entryY=0;entryDx=0;entryDy=0;" edge="1" parent="1" source="tgiKolL8vVsNQKiTnMbF-8" target="tgiKolL8vVsNQKiTnMbF-52">
          <mxGeometry width="160" relative="1" as="geometry">
            <mxPoint x="1020" y="410" as="sourcePoint" />
            <mxPoint x="1180" y="370" as="targetPoint" />
          </mxGeometry>
        </mxCell>
        <mxCell id="tgiKolL8vVsNQKiTnMbF-57" value="Extends" style="endArrow=block;endSize=16;endFill=0;html=1;rounded=0;exitX=1;exitY=0.5;exitDx=0;exitDy=0;entryX=0.001;entryY=0.94;entryDx=0;entryDy=0;entryPerimeter=0;" edge="1" parent="1" source="tgiKolL8vVsNQKiTnMbF-41" target="tgiKolL8vVsNQKiTnMbF-55">
          <mxGeometry width="160" relative="1" as="geometry">
            <mxPoint x="1194" y="288" as="sourcePoint" />
            <mxPoint x="1195" y="370" as="targetPoint" />
          </mxGeometry>
        </mxCell>
        <mxCell id="tgiKolL8vVsNQKiTnMbF-58" value="Extends" style="endArrow=block;endSize=16;endFill=0;html=1;rounded=0;exitX=1;exitY=0.5;exitDx=0;exitDy=0;entryX=0;entryY=0.5;entryDx=0;entryDy=0;" edge="1" parent="1" source="tgiKolL8vVsNQKiTnMbF-49" target="tgiKolL8vVsNQKiTnMbF-55">
          <mxGeometry width="160" relative="1" as="geometry">
            <mxPoint x="1204" y="298" as="sourcePoint" />
            <mxPoint x="1205" y="380" as="targetPoint" />
          </mxGeometry>
        </mxCell>
        <mxCell id="tgiKolL8vVsNQKiTnMbF-61" value="Extends" style="endArrow=block;endSize=16;endFill=0;html=1;rounded=0;exitX=0;exitY=0.5;exitDx=0;exitDy=0;entryX=1;entryY=0.5;entryDx=0;entryDy=0;" edge="1" parent="1" source="tgiKolL8vVsNQKiTnMbF-2" target="tgiKolL8vVsNQKiTnMbF-52">
          <mxGeometry width="160" relative="1" as="geometry">
            <mxPoint x="1310" y="310" as="sourcePoint" />
            <mxPoint x="1520" y="397" as="targetPoint" />
          </mxGeometry>
        </mxCell>
        <mxCell id="tgiKolL8vVsNQKiTnMbF-62" value="Extends" style="endArrow=block;endSize=16;endFill=0;html=1;rounded=0;exitX=0;exitY=0.5;exitDx=0;exitDy=0;entryX=1;entryY=0.5;entryDx=0;entryDy=0;" edge="1" parent="1" source="tgiKolL8vVsNQKiTnMbF-28" target="tgiKolL8vVsNQKiTnMbF-55">
          <mxGeometry width="160" relative="1" as="geometry">
            <mxPoint x="1320" y="320" as="sourcePoint" />
            <mxPoint x="1530" y="407" as="targetPoint" />
          </mxGeometry>
        </mxCell>
        <mxCell id="tgiKolL8vVsNQKiTnMbF-63" value="Extends" style="endArrow=block;endSize=16;endFill=0;html=1;rounded=0;exitX=0.516;exitY=0.995;exitDx=0;exitDy=0;exitPerimeter=0;entryX=0.5;entryY=0;entryDx=0;entryDy=0;edgeStyle=orthogonalEdgeStyle;" edge="1" parent="1" source="tgiKolL8vVsNQKiTnMbF-35" target="tgiKolL8vVsNQKiTnMbF-1">
          <mxGeometry width="160" relative="1" as="geometry">
            <mxPoint x="1330" y="330" as="sourcePoint" />
            <mxPoint x="1884" y="310" as="targetPoint" />
          </mxGeometry>
        </mxCell>
        <mxCell id="tgiKolL8vVsNQKiTnMbF-64" value="" style="endArrow=diamondThin;endFill=1;endSize=24;html=1;rounded=0;entryX=-0.009;entryY=0.739;entryDx=0;entryDy=0;exitX=1;exitY=0.5;exitDx=0;exitDy=0;entryPerimeter=0;" edge="1" parent="1" source="tgiKolL8vVsNQKiTnMbF-49" target="tgiKolL8vVsNQKiTnMbF-18">
          <mxGeometry width="160" relative="1" as="geometry">
            <mxPoint x="960" y="270" as="sourcePoint" />
            <mxPoint x="1120" y="270" as="targetPoint" />
          </mxGeometry>
        </mxCell>
        <mxCell id="tgiKolL8vVsNQKiTnMbF-65" value="" style="endArrow=diamondThin;endFill=1;endSize=24;html=1;rounded=0;entryX=-0.008;entryY=0.367;entryDx=0;entryDy=0;exitX=1;exitY=0.5;exitDx=0;exitDy=0;entryPerimeter=0;" edge="1" parent="1" source="tgiKolL8vVsNQKiTnMbF-41" target="tgiKolL8vVsNQKiTnMbF-18">
          <mxGeometry width="160" relative="1" as="geometry">
            <mxPoint x="890" y="603" as="sourcePoint" />
            <mxPoint x="1050" y="608" as="targetPoint" />
          </mxGeometry>
        </mxCell>
        <mxCell id="tgiKolL8vVsNQKiTnMbF-67" value="" style="endArrow=diamondThin;endFill=1;endSize=24;html=1;rounded=0;entryX=1;entryY=0.5;entryDx=0;entryDy=0;exitX=0;exitY=0.5;exitDx=0;exitDy=0;" edge="1" parent="1" source="tgiKolL8vVsNQKiTnMbF-2" target="tgiKolL8vVsNQKiTnMbF-18">
          <mxGeometry width="160" relative="1" as="geometry">
            <mxPoint x="910" y="623" as="sourcePoint" />
            <mxPoint x="1070" y="628" as="targetPoint" />
          </mxGeometry>
        </mxCell>
        <mxCell id="tgiKolL8vVsNQKiTnMbF-68" value="" style="endArrow=diamondThin;endFill=1;endSize=24;html=1;rounded=0;entryX=1.001;entryY=0.003;entryDx=0;entryDy=0;exitX=0;exitY=0.5;exitDx=0;exitDy=0;entryPerimeter=0;" edge="1" parent="1" source="tgiKolL8vVsNQKiTnMbF-28" target="tgiKolL8vVsNQKiTnMbF-20">
          <mxGeometry width="160" relative="1" as="geometry">
            <mxPoint x="1410" y="283" as="sourcePoint" />
            <mxPoint x="1340" y="490" as="targetPoint" />
          </mxGeometry>
        </mxCell>
        <mxCell id="tgiKolL8vVsNQKiTnMbF-40" value="&lt;div&gt;Line :&amp;nbsp; Shape&lt;/div&gt;" style="swimlane;fontStyle=1;align=center;verticalAlign=top;childLayout=stackLayout;horizontal=1;startSize=26;horizontalStack=0;resizeParent=1;resizeParentMax=0;resizeLast=0;collapsible=1;marginBottom=0;whiteSpace=wrap;html=1;" vertex="1" parent="1">
          <mxGeometry x="350" y="560" width="490" height="190" as="geometry" />
        </mxCell>
        <mxCell id="tgiKolL8vVsNQKiTnMbF-41" value="&lt;span class=&quot;hljs-deletion&quot;&gt;- rootNode: xml_node&amp;lt;&amp;gt;&lt;/span&gt;&lt;br/&gt;&lt;span class=&quot;hljs-deletion&quot;&gt;- attributes: SVGAttributes&lt;/span&gt;&lt;br/&gt;&lt;span class=&quot;hljs-deletion&quot;&gt;- start: MyPoint::Point&lt;/span&gt;&lt;br/&gt;&lt;span class=&quot;hljs-deletion&quot;&gt;- end: MyPoint::Point&lt;/span&gt;&lt;br/&gt;&lt;span class=&quot;hljs-deletion&quot;&gt;- graphics: Graphics&amp;amp;&lt;/span&gt;" style="text;strokeColor=none;fillColor=none;align=left;verticalAlign=top;spacingLeft=4;spacingRight=4;overflow=hidden;rotatable=0;points=[[0,0.5],[1,0.5]];portConstraint=eastwest;whiteSpace=wrap;html=1;" vertex="1" parent="tgiKolL8vVsNQKiTnMbF-40">
          <mxGeometry y="26" width="490" height="84" as="geometry" />
        </mxCell>
        <mxCell id="tgiKolL8vVsNQKiTnMbF-42" value="" style="line;strokeWidth=1;fillColor=none;align=left;verticalAlign=middle;spacingTop=-1;spacingLeft=3;spacingRight=3;rotatable=0;labelPosition=right;points=[];portConstraint=eastwest;strokeColor=inherit;" vertex="1" parent="tgiKolL8vVsNQKiTnMbF-40">
          <mxGeometry y="110" width="490" height="8" as="geometry" />
        </mxCell>
        <mxCell id="tgiKolL8vVsNQKiTnMbF-43" value="&lt;span class=&quot;hljs-addition&quot;&gt;+ Line(rootNode: xml_node&amp;lt;&amp;gt;, graphics: Gdiplus::Graphics&amp;amp;)&lt;/span&gt;&lt;div&gt;&lt;br&gt;&lt;span class=&quot;hljs-addition&quot;&gt;+ printInfomation(): void&lt;/span&gt;&lt;br&gt;&lt;span class=&quot;hljs-addition&quot;&gt;+ draw(): void&lt;/span&gt;&lt;/div&gt;" style="text;strokeColor=none;fillColor=none;align=left;verticalAlign=top;spacingLeft=4;spacingRight=4;overflow=hidden;rotatable=0;points=[[0,0.5],[1,0.5]];portConstraint=eastwest;whiteSpace=wrap;html=1;" vertex="1" parent="tgiKolL8vVsNQKiTnMbF-40">
          <mxGeometry y="118" width="490" height="72" as="geometry" />
        </mxCell>
        <mxCell id="tgiKolL8vVsNQKiTnMbF-77" value="" style="endArrow=diamondThin;endFill=1;endSize=24;html=1;rounded=0;entryX=1;entryY=0.5;entryDx=0;entryDy=0;exitX=0;exitY=0.5;exitDx=0;exitDy=0;" edge="1" parent="1" source="tgiKolL8vVsNQKiTnMbF-2" target="tgiKolL8vVsNQKiTnMbF-8">
          <mxGeometry width="160" relative="1" as="geometry">
            <mxPoint x="1570" y="393" as="sourcePoint" />
            <mxPoint x="1335" y="490" as="targetPoint" />
          </mxGeometry>
        </mxCell>
        <mxCell id="tgiKolL8vVsNQKiTnMbF-78" value="" style="endArrow=diamondThin;endFill=1;endSize=24;html=1;rounded=0;entryX=1.003;entryY=0.973;entryDx=0;entryDy=0;exitX=0;exitY=0.5;exitDx=0;exitDy=0;entryPerimeter=0;" edge="1" parent="1" source="tgiKolL8vVsNQKiTnMbF-28" target="tgiKolL8vVsNQKiTnMbF-8">
          <mxGeometry width="160" relative="1" as="geometry">
            <mxPoint x="1580" y="403" as="sourcePoint" />
            <mxPoint x="1345" y="500" as="targetPoint" />
          </mxGeometry>
        </mxCell>
        <mxCell id="tgiKolL8vVsNQKiTnMbF-79" value="" style="endArrow=diamondThin;endFill=1;endSize=24;html=1;rounded=0;entryX=0.003;entryY=0.999;entryDx=0;entryDy=0;exitX=1;exitY=0.5;exitDx=0;exitDy=0;entryPerimeter=0;" edge="1" parent="1" source="tgiKolL8vVsNQKiTnMbF-41" target="tgiKolL8vVsNQKiTnMbF-8">
          <mxGeometry width="160" relative="1" as="geometry">
            <mxPoint x="970" y="598" as="sourcePoint" />
            <mxPoint x="1043" y="584" as="targetPoint" />
          </mxGeometry>
        </mxCell>
        <mxCell id="tgiKolL8vVsNQKiTnMbF-80" value="" style="endArrow=diamondThin;endFill=1;endSize=24;html=1;rounded=0;entryX=0;entryY=0.5;entryDx=0;entryDy=0;exitX=1;exitY=0.5;exitDx=0;exitDy=0;" edge="1" parent="1" source="tgiKolL8vVsNQKiTnMbF-49" target="tgiKolL8vVsNQKiTnMbF-8">
          <mxGeometry width="160" relative="1" as="geometry">
            <mxPoint x="980" y="608" as="sourcePoint" />
            <mxPoint x="1053" y="594" as="targetPoint" />
          </mxGeometry>
        </mxCell>
        <mxCell id="tgiKolL8vVsNQKiTnMbF-81" value="" style="endArrow=diamondThin;endFill=1;endSize=24;html=1;rounded=0;entryX=0;entryY=0.5;entryDx=0;entryDy=0;exitX=1;exitY=0.5;exitDx=0;exitDy=0;" edge="1" parent="1" source="tgiKolL8vVsNQKiTnMbF-45" target="tgiKolL8vVsNQKiTnMbF-6">
          <mxGeometry width="160" relative="1" as="geometry">
            <mxPoint x="990" y="618" as="sourcePoint" />
            <mxPoint x="1063" y="604" as="targetPoint" />
          </mxGeometry>
        </mxCell>
        <mxCell id="tgiKolL8vVsNQKiTnMbF-82" value="" style="endArrow=diamondThin;endFill=1;endSize=24;html=1;rounded=0;entryX=0;entryY=0;entryDx=0;entryDy=0;exitX=1;exitY=0.5;exitDx=0;exitDy=0;" edge="1" parent="1" source="tgiKolL8vVsNQKiTnMbF-45" target="tgiKolL8vVsNQKiTnMbF-17">
          <mxGeometry width="160" relative="1" as="geometry">
            <mxPoint x="1000" y="628" as="sourcePoint" />
            <mxPoint x="1073" y="614" as="targetPoint" />
          </mxGeometry>
        </mxCell>
        <mxCell id="tgiKolL8vVsNQKiTnMbF-83" value="Extends" style="endArrow=block;endSize=16;endFill=0;html=1;rounded=0;exitX=1;exitY=0.5;exitDx=0;exitDy=0;entryX=0;entryY=0;entryDx=0;entryDy=0;" edge="1" parent="1" source="tgiKolL8vVsNQKiTnMbF-45" target="tgiKolL8vVsNQKiTnMbF-52">
          <mxGeometry width="160" relative="1" as="geometry">
            <mxPoint x="970" y="598" as="sourcePoint" />
            <mxPoint x="1091" y="424" as="targetPoint" />
          </mxGeometry>
        </mxCell>
        <mxCell id="tgiKolL8vVsNQKiTnMbF-85" value="Extends" style="endArrow=block;endSize=16;endFill=0;html=1;rounded=0;exitX=0;exitY=0.5;exitDx=0;exitDy=0;entryX=1;entryY=0;entryDx=0;entryDy=0;" edge="1" parent="1" source="tgiKolL8vVsNQKiTnMbF-10" target="tgiKolL8vVsNQKiTnMbF-52">
          <mxGeometry width="160" relative="1" as="geometry">
            <mxPoint x="1570" y="393" as="sourcePoint" />
            <mxPoint x="1300" y="395" as="targetPoint" />
          </mxGeometry>
        </mxCell>
        <mxCell id="tgiKolL8vVsNQKiTnMbF-86" value="" style="endArrow=diamondThin;endFill=1;endSize=24;html=1;rounded=0;entryX=1;entryY=0.5;entryDx=0;entryDy=0;exitX=0;exitY=0.5;exitDx=0;exitDy=0;" edge="1" parent="1" source="tgiKolL8vVsNQKiTnMbF-10" target="tgiKolL8vVsNQKiTnMbF-6">
          <mxGeometry width="160" relative="1" as="geometry">
            <mxPoint x="1570" y="393" as="sourcePoint" />
            <mxPoint x="1325" y="214" as="targetPoint" />
          </mxGeometry>
        </mxCell>
        <mxCell id="tgiKolL8vVsNQKiTnMbF-87" value="" style="endArrow=diamondThin;endFill=1;endSize=24;html=1;rounded=0;entryX=1;entryY=0;entryDx=0;entryDy=0;exitX=0;exitY=0.5;exitDx=0;exitDy=0;" edge="1" parent="1" source="tgiKolL8vVsNQKiTnMbF-10" target="tgiKolL8vVsNQKiTnMbF-17">
          <mxGeometry width="160" relative="1" as="geometry">
            <mxPoint x="1580" y="403" as="sourcePoint" />
            <mxPoint x="1335" y="224" as="targetPoint" />
          </mxGeometry>
        </mxCell>
      </root>
    </mxGraphModel>
  </diagram>
</mxfile>
